<svg xmlns="http://www.w3.org/2000/svg" viewBox="0 0 800 800">
  <defs>
    <linearGradient id="g" x1="0" x2="1">
      <stop offset="0%" stop-color="#fff6f1" />
      <stop offset="100%" stop-color="#f3f9ff" />
    </linearGradient>
  </defs>
  <path d="M426.7 36.3c51.8 4.3 103.6 11.2 143.6 41.6 40 30.4 69 80 86.2 130.5 17.2 50.5 22.7 101.8 14.7 153.7-8 51.9-28.8 104.5-64.1 142.2-35.3 37.7-85.9 60.5-136.9 75.5-51 15-102.4 22.3-150.8 11.5-48.4-10.8-93.8-38.4-126-75.3-32.2-36.9-52.1-83.1-62-132.1-9.9-49-11.1-100 3.2-147.4C74 128.3 111.5 91.6 156.9 65 202.4 38.5 259 31.9 312 36.2c19.6 1.6 39.3 3.3 59.4 0.1z" fill="url(#g)" />
</svg>
